Die Hard Quadrilogy (PSP + Ipod touch + Zune)
 
http://www.imdb.com/title/tt0095016/
 
http://www.imdb.com/title/tt0099423/
 
http://www.imdb.com/title/tt0112864/
 
http://www.imdb.com/title/tt0337978/


Source  :

Die.Hard.1988.1080p.BluRay.DTS.x264-DON (without subs)

^ps3^.d.i.e.h.a.r.d.2.720p (with English Hardsubs)


^ps3^.d.i.e.h.a.r.d.3.720p (with English Hardsubs)


^ps3^.d.i.e.h.a.r.d.4.720p (with English Hardsubs)





Info:

ID                               : 1
Format                           : AVC
Format/Info                      : Advanced Video Codec
Format profile                   : Baseline@L2.0
Format settings, CABAC           : No
Format settings, ReFrames        : 3 frames
Codec ID                         : avc1
Codec ID/Info                    : Advanced Video Coding
Duration                         : 2h 12mn
Bit rate mode                    : Variable
Bit rate                         : 390 Kbps
Width                            : 480 pixels
Height                           : 208 pixels
Display aspect ratio             : 2.35:1
Frame rate mode                  : Variable
Frame rate                       : 23.976 fps
Minimum frame rate               : 23.810 fps
Maximum frame rate               : 24.390 fps
Color space                      : YUV
Chroma subsampling               : 4:2:0
Bit depth                        : 8 bits
Scan type                        : Progressive
Bits/(Pixel*Frame)               : 0.163
Stream size                      : 369 MiB (75%)
Writing library                  : x264 core 79

ID                               : 2
Format                           : AAC
Format/Info                      : Advanced Audio Codec
Format version                   : Version 4
Format profile                   : LC
Format settings, SBR             : No
Codec ID                         : 40
Duration                         : 2h 12mn
Bit rate mode                    : Variable
Bit rate                         : 128 Kbps
Maximum bit rate                 : 207 Kbps
Channel(s)                       : 2 channels
Channel positions                : Front: L R
Sampling rate                    : 48.0 KHz
Stream size                      : 121 MiB (25%)
Language                         : English

Screens:
 
http://img831.imageshack.us/img831/7636/diehard1ooom4vthumbs201.jpg
 
http://img696.imageshack.us/img696/7751/diehard2ooom4vthumbs201.jpg
 
http://img717.imageshack.us/img717/1286/diehard3withavengeanceo.jpg
 
http://img94.imageshack.us/img94/3048/diehard4livefreeordieha.jpg





PLEASE LET THE TORRENT SEED AND SHARE IT WITH ALL YOU KNOW!

Let me know what I can do to be your trusted source of Handheld videos.
 
http://thepiratebay.org/user/on.off.on/ -OOO